<svg width="49" height="39" viewBox="0 0 49 39" fill="none" xmlns="http://www.w3.org/2000/svg">
<path d="M20.3917 21.1491L21.2576 20.2876C21.4965 20.05 21.4965 19.6638 21.2576 19.4261L17.6568 15.8438L21.2576 12.2614C21.4965 12.0237 21.4965 11.6375 21.2576 11.3999L20.3917 10.5384C20.1528 10.3007 19.7646 10.3007 19.5257 10.5384L14.6257 15.4134C14.3869 15.651 14.3869 16.0372 14.6257 16.2749L19.5257 21.1499C19.7654 21.3875 20.1528 21.3875 20.3917 21.1491ZM27.7417 20.2876L28.6076 21.1491C28.8465 21.3868 29.2346 21.3868 29.4735 21.1491L34.3735 16.2741C34.6124 16.0365 34.6124 15.6503 34.3735 15.4126L29.4735 10.5376C29.2346 10.3 28.8465 10.3 28.6076 10.5376L27.7417 11.3991C27.5028 11.6368 27.5028 12.023 27.7417 12.2606L31.3432 15.8438L27.7424 19.4261C27.6855 19.4826 27.6403 19.5497 27.6094 19.6236C27.5786 19.6975 27.5627 19.7767 27.5626 19.8567C27.5625 19.9367 27.5783 20.016 27.609 20.0899C27.6397 20.1638 27.6848 20.231 27.7417 20.2876ZM47.775 28.0312H44.1V7.3125C44.1 4.62363 41.9011 2.4375 39.2 2.4375H9.8C7.09888 2.4375 4.9 4.62363 4.9 7.3125V28.0312H1.225C0.548187 28.0312 0 28.5766 0 29.25V32.9062C0 36.2662 2.74706 39 6.125 39H42.875C46.2529 39 49 36.2662 49 32.9062V29.25C49 28.5766 48.4518 28.0312 47.775 28.0312ZM7.35 7.3125C7.35 5.96654 8.44714 4.875 9.8 4.875H39.2C40.5529 4.875 41.65 5.96654 41.65 7.3125V28.0312H29.9459C29.635 28.0312 29.4084 28.2697 29.3395 28.5713C29.0922 29.6575 28.116 30.4688 26.95 30.4688H22.05C20.884 30.4688 19.9078 29.6575 19.6605 28.5713C19.5916 28.2697 19.365 28.0312 19.0541 28.0312H7.35V7.3125ZM46.55 32.9062C46.55 34.9225 44.9016 36.5625 42.875 36.5625H6.125C4.09839 36.5625 2.45 34.9225 2.45 32.9062V30.4688H17.3605C17.8651 31.8871 19.2271 32.9062 20.825 32.9062H28.175C29.7736 32.9062 31.1349 31.8871 31.6395 30.4688H46.55V32.9062Z" fill="#3873F9"/>
</svg>
