<svg xmlns="http://www.w3.org/2000/svg" width="48" height="38" fill="none" viewBox="0 0 48 38"><path fill="#3873F9" d="M24 4.74979C26.227 4.75254 28.3619 5.6292 29.9366 7.1875C31.5113 8.7458 32.3972 10.8585 32.4 13.0623C32.4 13.3772 32.2736 13.6793 32.0485 13.902C31.8235 14.1247 31.5183 14.2498 31.2 14.2498C30.8817 14.2498 30.5765 14.1247 30.3515 13.902C30.1264 13.6793 30 13.3772 30 13.0623C29.9982 11.4881 29.3655 9.97891 28.2407 8.8658C27.1158 7.75268 25.5907 7.12656 24 7.12479C23.6817 7.12479 23.3765 6.99968 23.1515 6.77698C22.9264 6.55428 22.8 6.25224 22.8 5.93729C22.8 5.62235 22.9264 5.3203 23.1515 5.0976C23.3765 4.8749 23.6817 4.74979 24 4.74979ZM24 -0.000207404C31.7205 -0.000207404 37.209 6.20077 37.2 13.0794C37.2003 16.2359 36.0389 19.2845 33.933 21.6553C32.0085 23.824 30.162 27.3635 30 28.4998L29.9955 34.0803C29.9953 34.3137 29.9251 34.5418 29.7937 34.7356L27.9562 37.4699C27.8468 37.6327 27.6984 37.7663 27.5243 37.8587C27.3501 37.9512 27.1556 37.9996 26.958 37.9998H21.0442C20.8462 38 20.6513 37.9517 20.4767 37.8593C20.3021 37.7668 20.1534 37.633 20.0437 37.4699L18.2062 34.7342C18.0761 34.5398 18.006 34.312 18.0045 34.0788L18 28.4998C17.8312 27.3331 15.975 23.8099 14.067 21.6553C12.3966 19.7676 11.3113 17.4435 10.9411 14.9613C10.5708 12.479 10.9312 9.94376 11.9792 7.65896C13.0272 5.37416 14.7184 3.43662 16.8503 2.07827C18.9821 0.719917 21.4644 -0.00170109 24 -0.000207404ZM20.4045 33.7181L21.687 35.6248H26.316L27.5955 33.7181V33.2498H20.4022L20.4045 33.7181ZM20.4 30.8748H27.6L27.6045 28.4998H20.4V30.8748ZM15.8692 20.0901C16.9192 21.2739 18.5932 23.6592 19.662 26.1233H28.3335C29.4045 23.6585 31.0785 21.2739 32.1285 20.0901C33.8502 18.1455 34.7981 15.6476 34.7955 13.0623C34.809 7.34745 30.267 2.37479 24 2.37479C18.0442 2.37479 13.2 7.16858 13.2 13.0623C13.2001 15.6479 14.1495 18.1454 15.8715 20.0901H15.8692ZM40.8 13.0623C40.8 12.7473 40.9264 12.4453 41.1515 12.2226C41.3765 11.9999 41.6817 11.8748 42 11.8748H46.8C47.1183 11.8748 47.4235 11.9999 47.6485 12.2226C47.8736 12.4453 48 12.7473 48 13.0623C48 13.3772 47.8736 13.6793 47.6485 13.902C47.4235 14.1247 47.1183 14.2498 46.8 14.2498H42C41.6817 14.2498 41.3765 14.1247 41.1515 13.902C40.9264 13.6793 40.8 13.3772 40.8 13.0623ZM8.4 4.74979C8.21364 4.74937 8.02988 4.70645 7.863 4.62436L3.063 2.24936C2.77836 2.10843 2.56195 1.86136 2.46138 1.56253C2.36081 1.26369 2.38433 0.937565 2.52675 0.655886C2.59727 0.516413 2.69486 0.392051 2.81395 0.289901C2.93303 0.18775 3.07129 0.109811 3.22081 0.0605345C3.52279 -0.0389843 3.85235 -0.0157154 4.137 0.125222L8.937 2.50022C9.17877 2.61989 9.37264 2.81683 9.48718 3.05915C9.60172 3.30146 9.63022 3.57495 9.56807 3.8353C9.50592 4.09565 9.35677 4.3276 9.14476 4.49358C8.93276 4.65956 8.67033 4.74984 8.4 4.74979ZM1.2 11.8748H6C6.31826 11.8748 6.62349 11.9999 6.84853 12.2226C7.07357 12.4453 7.2 12.7473 7.2 13.0623C7.2 13.3772 7.07357 13.6793 6.84853 13.902C6.62349 14.1247 6.31826 14.2498 6 14.2498H1.2C0.881737 14.2498 0.576511 14.1247 0.351471 13.902C0.126427 13.6793 0 13.3772 0 13.0623C0 12.7473 0.126427 12.4453 0.351471 12.2226C0.576511 11.9999 0.881737 11.8748 1.2 11.8748ZM39.063 2.50022L43.863 0.125222C44.0039 0.055437 44.1574 0.0138064 44.3146 0.0027072C44.4718 -0.00839194 44.6297 0.0112578 44.7792 0.0605345C45.0812 0.160053 45.3308 0.374208 45.4732 0.655886C45.6157 0.937565 45.6392 1.26369 45.5386 1.56253C45.4381 1.86136 45.2216 2.10843 44.937 2.24936L40.137 4.62436C39.9701 4.70645 39.7864 4.74937 39.6 4.74979C39.3297 4.74984 39.0672 4.65956 38.8552 4.49358C38.6432 4.3276 38.4941 4.09565 38.4319 3.8353C38.3698 3.57495 38.3983 3.30146 38.5128 3.05915C38.6274 2.81683 38.8212 2.61989 39.063 2.50022ZM3.063 23.8752L7.863 21.5002C8.14774 21.3593 8.4774 21.3361 8.77945 21.4356C9.0815 21.5352 9.3312 21.7495 9.47363 22.0313C9.61604 22.313 9.63952 22.6393 9.53888 22.9382C9.43824 23.2371 9.22174 23.4842 8.937 23.6251L4.137 26.0001C3.85225 26.141 3.5226 26.1643 3.22055 26.0647C2.9185 25.9651 2.66879 25.7508 2.52637 25.4691C2.38395 25.1873 2.36048 24.8611 2.46111 24.5622C2.56175 24.2633 2.77826 24.0162 3.063 23.8752ZM39.6 21.3748C39.7864 21.3752 39.9701 21.4181 40.137 21.5002L44.937 23.8752C45.2217 24.0162 45.4382 24.2633 45.5389 24.5622C45.5887 24.7102 45.6086 24.8664 45.5974 25.022C45.5862 25.1776 45.5441 25.3295 45.4736 25.4691C45.4031 25.6086 45.3055 25.733 45.1864 25.8352C45.0673 25.9374 44.929 26.0154 44.7795 26.0647C44.4774 26.1643 44.1477 26.141 43.863 26.0001L39.063 23.6251C38.8208 23.5057 38.6265 23.3087 38.5117 23.0662C38.3969 22.8238 38.3682 22.55 38.4304 22.2894C38.4926 22.0288 38.642 21.7966 38.8543 21.6306C39.0666 21.4645 39.3294 21.3744 39.6 21.3748Z"/></svg>