<svg xmlns="http://www.w3.org/2000/svg" width="38" height="38" fill="none" viewBox="0 0 38 38"><path fill="#3873F9" d="M8.31348 19.5938C7.32637 19.5938 6.53223 20.3879 6.53223 21.375C6.53223 22.3621 7.32637 23.1562 8.31348 23.1562C9.30059 23.1562 10.0947 22.3621 10.0947 21.375C10.0947 20.3879 9.30059 19.5938 8.31348 19.5938ZM10.6885 11.2812C9.70137 11.2812 8.90723 12.0754 8.90723 13.0625C8.90723 14.0496 9.70137 14.8438 10.6885 14.8438C11.6756 14.8438 12.4697 14.0496 12.4697 13.0625C12.4697 12.0754 11.6756 11.2812 10.6885 11.2812ZM19.001 0C17.7467 0 16.4627 0.11875 15.1639 0.371094C7.78653 1.81094 1.84161 7.74102 0.386919 15.0961C-2.18105 28.0918 8.64004 38 17.7764 38C18.3924 38 19.001 37.9555 19.6022 37.859C22.66 37.384 24.1592 33.8066 22.7564 31.0531C21.042 27.6836 23.4912 23.75 27.2764 23.75H33.1916C35.8486 23.75 38.001 21.5531 38.0084 18.9035C37.9713 8.45352 29.4732 0 19.001 0ZM33.1842 21.375H27.2689C24.649 21.375 22.2666 22.7035 20.9084 24.9227C19.5576 27.127 19.4537 29.8211 20.6338 32.1367C20.9975 32.8492 20.99 33.7398 20.6264 34.4598C20.4482 34.8012 20.04 35.3949 19.2385 35.5211C18.7709 35.5953 18.2811 35.6324 17.7764 35.6324C13.724 35.6324 9.30801 33.3094 6.23536 29.5762C2.96973 25.598 1.71543 20.6254 2.71739 15.5711C3.98653 9.14375 9.17442 3.97812 15.624 2.71641C16.7522 2.49375 17.8877 2.38242 19.001 2.38242C28.1373 2.38242 35.5963 9.79688 35.626 18.9035C35.626 20.2617 34.5275 21.375 33.1842 21.375V21.375ZM27.3135 10.0938C26.3264 10.0938 25.5322 10.8879 25.5322 11.875C25.5322 12.8621 26.3264 13.6562 27.3135 13.6562C28.3006 13.6562 29.0947 12.8621 29.0947 11.875C29.0947 10.8879 28.3006 10.0938 27.3135 10.0938ZM17.8135 6.53125C16.8264 6.53125 16.0322 7.32539 16.0322 8.3125C16.0322 9.29961 16.8264 10.0938 17.8135 10.0938C18.8006 10.0938 19.5947 9.29961 19.5947 8.3125C19.5947 7.32539 18.8006 6.53125 17.8135 6.53125Z"/></svg>