<svg xmlns="http://www.w3.org/2000/svg" width="34" height="40" fill="none" viewBox="0 0 34 40"><g clip-path="url(#clip0)"><path fill="#3873F9" d="M27.5976 15.7128C26.6057 13.5553 24.2294 12.521 22.0745 13.2677V5.27344C22.0745 2.36562 19.7984 0 17.0007 0C14.203 0 11.9269 2.36562 11.9269 5.27344L12.1427 13.75L9.80121 6.7525C8.77643 4.02703 5.81805 2.69711 3.21151 3.76719C0.608464 4.83563 -0.66775 7.88516 0.349594 10.5912L4.938 22.7953C2.72489 24.6453 1.19398 26.8224 2.76116 29.6881L7.09761 37.6178C7.90116 39.0872 9.41105 40 11.038 40H27.2998C28.3217 40 29.3246 39.6358 30.1238 38.9744C30.9173 38.3177 31.4814 37.3911 31.7125 36.365L33.8807 26.7361C33.9598 26.3846 33.9998 26.0249 33.9998 25.6641V20C33.9998 16.5723 30.5743 14.3062 27.5976 15.7128ZM5.39116 25.637L7.49771 23.876C7.59735 23.7927 7.66877 23.679 7.70174 23.5513C7.73471 23.4236 7.72753 23.2885 7.68122 23.1652L2.61454 9.68898C1.32391 6.25625 6.25626 4.25023 7.53634 7.65477L12.2625 20.2255C12.3067 20.3431 12.3845 20.4442 12.4855 20.5155C12.5866 20.5868 12.7062 20.6249 12.8287 20.6249H13.7483C13.9094 20.6249 14.0638 20.5591 14.1776 20.4419C14.2915 20.3247 14.3555 20.1657 14.3555 19.9999V5.27344C14.3555 1.60711 19.6459 1.59992 19.6459 5.27344V20C19.6459 20.1658 19.7098 20.3247 19.8237 20.4419C19.9376 20.5592 20.092 20.625 20.253 20.625H20.7951C20.9562 20.625 21.1106 20.5592 21.2244 20.4419C21.3383 20.3247 21.4023 20.1658 21.4023 20V17.7344C21.4023 14.8163 25.6086 14.8117 25.6086 17.7344V20C25.6086 20.1658 25.6726 20.3247 25.7865 20.4419C25.9003 20.5592 26.0548 20.625 26.2158 20.625H26.7579C26.9189 20.625 27.0733 20.5592 27.1872 20.4419C27.3011 20.3247 27.365 20.1658 27.365 20C27.365 17.082 31.5713 17.0773 31.5713 20V25.6641C31.5713 25.8348 31.5523 26.0055 31.515 26.1716L29.3467 35.8005C29.1214 36.8012 28.2797 37.5 27.2999 37.5H11.038C10.2869 37.5 9.58788 37.0752 9.21396 36.3915L4.87744 28.4618C4.35658 27.5093 4.57265 26.3213 5.39116 25.637V25.637Z"/></g><defs><clipPath id="clip0"><rect width="34" height="40" fill="#fff"/></clipPath></defs></svg>