<svg xmlns="http://www.w3.org/2000/svg" width="12" height="12" fill="none" viewBox="0 0 12 12"><path fill="#3873F9" d="M11.8125 6C11.8125 2.78906 9.21094 0.1875 6 0.1875C2.78906 0.1875 0.1875 2.78906 0.1875 6C0.1875 9.21094 2.78906 11.8125 6 11.8125C9.21094 11.8125 11.8125 9.21094 11.8125 6ZM1.3125 6C1.3125 3.41016 3.41016 1.3125 6 1.3125C8.58984 1.3125 10.6875 3.41016 10.6875 6C10.6875 8.58984 8.58984 10.6875 6 10.6875C3.41016 10.6875 1.3125 8.58984 1.3125 6ZM3 6.46875V5.53125C3 5.37656 3.12656 5.25 3.28125 5.25H6V3.67969C6 3.42891 6.30234 3.30469 6.48047 3.48047L8.80078 5.80078C8.91094 5.91094 8.91094 6.08906 8.80078 6.19922L6.48047 8.51953C6.30234 8.69766 6 8.57109 6 8.32031V6.75H3.28125C3.12656 6.75 3 6.62344 3 6.46875Z"/></svg>