<svg xmlns="http://www.w3.org/2000/svg" width="48" height="39" fill="none" viewBox="0 0 48 39"><g clip-path="url(#clip0)"><path fill="#3873F9" d="M47.8169 15.0175L42.3067 1.5058C42.1862 1.21008 42.0094 0.941375 41.7866 0.715035C41.5637 0.488695 41.2992 0.30915 41.008 0.186652C40.7169 0.0641544 40.4048 0.00110316 40.0896 0.00109863C39.7745 0.0010941 39.4624 0.0641364 39.1712 0.186626L31.0276 3.61288C29.8843 4.09386 29.3395 5.36632 29.6802 6.54564L5.63236 18.3895C4.97493 18.7132 4.65194 19.4242 4.89349 20.0163L5.5493 21.6243L0.741392 23.647C0.447378 23.7707 0.213781 24.0079 0.0919784 24.3065C-0.0298246 24.6052 -0.0298597 24.9407 0.0918809 25.2393L1.59613 28.9277C1.65642 29.0756 1.7448 29.2099 1.85622 29.3231C1.96764 29.4363 2.09992 29.5261 2.24551 29.5873C2.3911 29.6486 2.54714 29.6801 2.70473 29.6801C2.86231 29.6801 3.01836 29.6486 3.16395 29.5874L7.97186 27.5646L8.62752 29.1724C8.93162 29.9185 9.78372 29.9679 10.2824 29.7924L20.3247 26.2541C20.4208 26.3716 20.5405 26.4654 20.6466 26.5735L16.8315 38.1984C16.8014 38.29 16.7932 38.3875 16.8076 38.483C16.8219 38.5785 16.8584 38.6691 16.914 38.7474C16.9696 38.8258 17.0427 38.8896 17.1273 38.9336C17.212 38.9776 17.3057 39.0005 17.4008 39.0005H18.6642C18.7901 39.0005 18.9129 38.9603 19.015 38.8855C19.1172 38.8107 19.1936 38.7052 19.2334 38.5838L22.7584 27.8452C23.6912 28.1068 24.3842 28.0804 25.2421 27.8448L28.7672 38.5838C28.807 38.7052 28.8834 38.8107 28.9856 38.8855C29.0878 38.9603 29.2105 39.0005 29.3364 39.0005H30.5999C30.6949 39.0005 30.7887 38.9776 30.8733 38.9336C30.9579 38.8896 31.0311 38.8258 31.0867 38.7474C31.1423 38.6691 31.1787 38.5785 31.193 38.483C31.2074 38.3875 31.1992 38.29 31.1691 38.1984L27.3681 26.6167C28.2501 25.7304 28.7593 24.5315 28.7889 23.2718L35.5784 20.8795C36.0825 21.5295 37.1622 22.139 38.3747 21.6284L46.5185 18.2023C47.1065 17.9549 47.5736 17.4803 47.8171 16.8831C48.0606 16.2858 48.0605 15.6147 47.8169 15.0175ZM3.35409 26.869L2.76829 25.4326L6.46761 23.8762L7.0534 25.3127L3.35409 26.869ZM24.0003 25.5943C23.5256 25.5943 23.0616 25.4513 22.6669 25.1835C22.2723 24.9157 21.9647 24.535 21.783 24.0896C21.6013 23.6442 21.5538 23.1541 21.6464 22.6813C21.739 22.2084 21.9676 21.7741 22.3033 21.4332C22.6389 21.0923 23.0665 20.8602 23.5321 20.7661C23.9976 20.6721 24.4802 20.7203 24.9188 20.9048C25.3573 21.0893 25.7321 21.4017 25.9958 21.8026C26.2596 22.2034 26.4003 22.6747 26.4003 23.1568C26.3997 23.8031 26.1466 24.4227 25.6967 24.8797C25.2467 25.3366 24.6366 25.5936 24.0003 25.5943ZM28.2243 20.8907C27.6978 19.8521 26.82 19.0413 25.7522 18.6073C24.6843 18.1733 23.4982 18.1451 22.4115 18.528C21.3249 18.9108 20.4107 19.679 19.8369 20.6914C19.2632 21.7039 19.0683 22.8925 19.2882 24.0392L10.4076 27.1682L7.54764 20.1551L30.5552 8.82366L34.5651 18.6565L28.2243 20.8907ZM37.4562 19.3766L31.9461 5.86486L40.0896 2.43876L45.5997 15.9504L37.4562 19.3766Z"/></g><defs><clipPath id="clip0"><rect width="48" height="39" fill="#fff"/></clipPath></defs></svg>