<svg width="85" height="52" viewBox="0 0 85 52" fill="none" xmlns="http://www.w3.org/2000/svg">
<g clip-path="url(#clip0)">
<path d="M3.23129 1.70036C6.61057 -0.659818 18.4751 0.253799 18.4751 0.253799C18.4751 0.253799 14.8984 11.9278 11.5192 14.288C8.13988 16.6481 3.55195 15.7345 1.25799 12.2577C-1.03597 8.78089 -0.123321 4.06053 3.23129 1.70036Z" fill="black" fill-opacity="0.46"/>
<path d="M85.0001 0L56.7078 47.4065C55.0059 50.2743 51.9719 52 48.716 52H40.4528L68.745 4.59346C70.447 1.7511 73.4809 0 76.7368 0H85.0001Z" fill="black" fill-opacity="0.46"/>
<path d="M52.6379 0L24.3457 47.4065C22.6437 50.2743 19.6097 52 16.3538 52H8.09058L36.3828 4.59346C38.1094 1.7511 41.1187 0 44.3747 0H52.6379Z" fill="black" fill-opacity="0.46"/>
</g>
<defs>
<clipPath id="clip0">
<rect width="85" height="52" fill="white"/>
</clipPath>
</defs>
</svg>
