<svg width="526" height="291" viewBox="0 0 526 291" fill="none" xmlns="http://www.w3.org/2000/svg">
<path d="M454.229 289.953C493.867 289.953 526 285.514 526 280.037C526 274.561 493.867 270.121 454.229 270.121C414.591 270.121 382.458 274.561 382.458 280.037C382.458 285.514 414.591 289.953 454.229 289.953Z" fill="#E6E6E6"/>
<path d="M71.9804 291C111.734 291 143.961 286.56 143.961 281.084C143.961 275.607 111.734 271.168 71.9804 271.168C32.2267 271.168 0 275.607 0 281.084C0 286.56 32.2267 291 71.9804 291Z" fill="#E6E6E6"/>
<path d="M119.955 133.056L121.806 136.891C121.806 136.891 132.316 150.95 125.823 153.153C119.331 155.356 115.886 139.819 115.886 139.819L114.169 137.644L119.955 133.056Z" fill="#FFB8B8"/>
<path d="M107.848 60.4305L109.576 59.6978C109.576 59.6978 111.62 60.4305 111.62 63.5813C111.62 66.7321 109.106 112.734 109.106 112.734L114.135 137.94L107.22 139.201L96.5325 115.885L107.848 60.4305Z" fill="#575A89"/>
<path d="M107.848 60.4305L109.576 59.6978C109.576 59.6978 111.62 60.4305 111.62 63.5813C111.62 66.7321 109.106 112.734 109.106 112.734L122.622 134.475L113.821 140.776L96.5326 115.885L107.848 60.4305Z" fill="#575A89"/>
<path d="M106.591 133.529C106.591 133.529 114.764 136.68 114.135 142.352C113.506 148.023 105.334 260.822 105.334 260.822L107.848 273.425L83.9594 274.055L83.3307 192.765L66.357 274.055H42.468L59.4418 131.009L106.591 133.529Z" fill="#2F2E41"/>
<path d="M104.705 270.905L110.363 276.576C110.363 276.576 123.565 279.097 120.421 283.508C117.278 287.919 84.588 282.248 84.588 282.248L85.2167 272.165L104.705 270.905Z" fill="#2F2E41"/>
<path d="M63.8424 270.905L69.5003 276.576C69.5003 276.576 82.7021 279.097 79.5588 283.508C76.4155 287.919 43.7253 282.248 43.7253 282.248L44.354 272.165L63.8424 270.905Z" fill="#2F2E41"/>
<path d="M86.474 37.7446C94.8068 37.7446 101.562 30.9734 101.562 22.6207C101.562 14.268 94.8068 7.49684 86.474 7.49684C78.1413 7.49684 71.3862 14.268 71.3862 22.6207C71.3862 30.9734 78.1413 37.7446 86.474 37.7446Z" fill="#FFB8B8"/>
<path d="M95.9039 31.4428L94.6464 57.2795L75.1582 45.9369L77.6726 31.4428H95.9039Z" fill="#FFB8B8"/>
<path d="M74.5298 39.6351L92.7605 52.8687L95.9039 43.4159L101.562 58.54L98.4183 85.6371L74.5298 39.6351Z" fill="#CFCCE0"/>
<path d="M74.5295 37.7446L94.6466 65.4717L95.3751 42.3092L101.562 47.197V52.2384L110.363 60.4305L107.22 91.9386L106.591 129.118C106.591 129.118 110.363 132.269 109.106 134.159C107.848 136.05 102.819 140.461 97.1612 140.461C91.5033 140.461 56.2985 136.05 56.2985 133.529C56.2985 131.009 57.5558 98.2402 57.5558 98.2402V54.1288L72.6436 42.7859L74.5295 37.7446Z" fill="#575A89"/>
<path d="M55.041 142.351L63.2137 154.324L66.3571 140.461L62.5853 137.94L55.041 142.351Z" fill="#FFB8B8"/>
<path opacity="0.2" d="M94.6852 160.408L82.5997 193.222L83.7795 193.659L95.8649 160.845L94.6852 160.408Z" fill="black"/>
<path d="M77.3585 7.81192C77.3585 7.81192 79.2445 -1.6405 89.9317 0.249981L88.6744 0.880136C88.6744 0.880136 98.7329 -0.380187 97.4756 5.29127C97.4756 5.29127 105.648 10.3326 103.762 16.004C102.653 19.2912 101.812 22.6631 101.248 26.0866L99.3616 24.1961C99.3616 24.1961 97.4756 11.5929 86.1597 12.8532C77.6729 13.7985 74.2152 17.8158 73.3312 20.7106C72.9242 22.0717 72.4047 23.3965 71.778 24.6711L71.072 24.8263C71.072 24.8263 67.3 10.9627 77.3585 7.81192Z" fill="#5C4437"/>
<path d="M64.471 53.4987L58.7481 53.2324L57.5558 54.1288C56.1872 55.4998 54.9262 56.9746 53.7838 58.54C52.5265 60.4305 36.1814 106.432 36.1814 106.432C35.8781 109.226 36.3117 112.051 37.4387 114.624C39.3247 119.036 54.4125 145.502 54.4125 145.502L65.7283 138.571L50.6405 107.693L61.3277 92.5687L64.471 53.4987Z" fill="#575A89"/>
<path d="M432.899 251.212V268.186H443.059L444.413 251.212H432.899Z" fill="#A0616A"/>
<path d="M456.944 252.231L461.007 261.736L467.781 264.452L469.135 245.441L463.717 242.726L456.944 252.231Z" fill="#A0616A"/>
<path d="M465.749 260.378C465.749 260.378 465.174 256.092 459.366 257.896L460.33 270.562C460.33 270.562 455.589 284.82 462.362 283.462C469.135 282.104 473.199 269.204 473.199 269.204L477.941 247.478L466.491 244.116L465.749 260.378Z" fill="#2F2E41"/>
<path d="M423.078 116.442C423.078 116.442 413.595 188.41 416.982 196.557C420.368 204.705 455.928 257.323 455.928 257.323L471.506 236.955L436.624 193.163L469.135 148.353L471.845 121.195L423.078 116.442Z" fill="#2F2E41"/>
<path d="M460.33 142.242L469.272 146.985L469.135 148.352L447.123 258.681L430.189 255.286L441.365 177.547L460.33 142.242Z" fill="#2F2E41"/>
<path d="M431.883 263.094L427.819 269.204C427.819 269.204 419.014 284.141 428.496 284.141C437.979 284.141 442.043 284.141 442.72 280.746C443.217 278.433 443.897 276.162 444.752 273.957L444.075 265.131L431.883 263.094Z" fill="#2F2E41"/>
<path d="M458.298 38.3641C466.528 38.3641 473.199 31.6767 473.199 23.4274C473.199 15.178 466.528 8.49065 458.298 8.49065C450.069 8.49065 443.397 15.178 443.397 23.4274C443.397 31.6767 450.069 38.3641 458.298 38.3641Z" fill="#A0616A"/>
<path d="M446.107 28.1799C446.107 28.1799 448.139 39.722 442.043 41.7588C435.947 43.7956 449.493 70.9533 449.493 70.9533L465.072 45.1535C465.072 45.1535 461.008 36.3272 463.717 32.2536L446.107 28.1799Z" fill="#A0616A"/>
<path d="M449.493 59.4113L445.816 37.2863L438.656 41.7588L419.691 52.6219L427.142 84.5321L424.432 104.221C424.432 104.221 421.046 110.332 421.723 113.048C422.4 115.763 421.046 117.121 421.723 117.8C422.4 118.479 456.266 123.911 466.426 127.984C476.586 132.058 477.941 133.416 477.263 130.021C476.586 126.626 469.135 110.332 469.135 110.332L475.231 83.1742L483.359 59.4113L463.627 41.1577L449.493 59.4113Z" fill="#575A89"/>
<path d="M478.618 89.2847L483.359 102.185L471.167 124.59L467.189 127.691C466.561 128.181 466.09 128.845 465.835 129.601C465.58 130.357 465.552 131.171 465.754 131.943L468.458 142.242L475.545 131.692C475.545 131.692 494.874 108.295 494.196 102.185C493.519 96.0741 491.487 86.5689 491.487 86.5689L478.618 89.2847Z" fill="#A0616A"/>
<path d="M411.563 78.4216L408.177 95.3952L395.308 127.305C395.308 127.305 381.084 140.884 387.857 143.6C394.63 146.316 402.758 130.021 402.758 130.021L419.014 99.4688L425.11 81.1374L411.563 78.4216Z" fill="#A0616A"/>
<path d="M475.909 58.0534L481.361 57.5627L483.359 59.4113C483.359 59.4113 494.874 85.2111 493.519 87.9268C492.164 90.6426 478.618 92.0005 478.618 92.0005L473.199 75.7059L475.909 58.0534Z" fill="#575A89"/>
<path d="M424.432 53.3008L421.072 51.8308L419.691 52.6219C419.691 52.6219 406.145 79.7795 409.531 81.1374C412.918 82.4953 429.174 84.5321 429.174 84.5321L424.432 53.3008Z" fill="#575A89"/>
<path opacity="0.2" d="M438.656 196.393L434.527 225.113L430.684 219.196L438.656 196.393Z" fill="black"/>
<path d="M467.984 14.5815C467.984 14.5815 469.485 18.541 462.519 16.5112C462.519 16.5112 459.76 17.8597 459.92 15.5583C459.92 15.5583 456.116 19.1462 455.393 16.7828C454.669 14.4195 452.687 17.3642 452.687 17.3642L451.186 13.4046L449.258 15.5821L443.069 15.1485C443.069 15.1485 442.371 -0.317984 463.482 2.70284C484.593 5.72367 472.46 29.3013 472.46 29.3013C472.46 29.3013 472.593 24.9258 470.664 27.1033C468.736 29.2809 467.984 14.5815 467.984 14.5815Z" fill="#2F2E41"/>
<path d="M124.975 136.525V201.72H396.662V136.525H124.975ZM287.755 190.781H141.78V181.593H287.755V190.781ZM287.755 173.717H141.78V164.528H287.755V173.717ZM379.857 156.652H141.78V147.464H379.857V156.652Z" fill="#3873F9"/>
<path d="M274.715 107.748H238.049V70.9936H262.929V71.8692H238.922V106.873H273.842V89.3708H274.715V107.748Z" fill="#3F3D56"/>
<path d="M256.193 98.1611C255.346 95.6532 244.72 87.1282 251.231 85.6953L256.571 92.8319L281.119 68.225L283.588 70.6999L256.193 98.1611Z" fill="#3873F9"/>
</svg>
