<svg width="87" height="19" viewBox="0 0 87 19" fill="none" xmlns="http://www.w3.org/2000/svg">
<g clip-path="url(#clip0)">
<path d="M10.6086 10.3493C10.6086 11.7022 10.1001 12.7292 9.06372 13.4205C8.03709 14.1117 6.58024 14.4673 4.70297 14.4673C3.471 14.4673 2.44437 14.3586 1.63284 14.1512C1.06575 14.013 0.615981 13.8747 0.293324 13.7661C0.11733 13.697 0 13.539 0 13.3612C0 13.3316 0 13.302 0.00977748 13.2723L0.488874 10.9615C0.537761 10.7048 0.811531 10.5567 1.06575 10.6455C1.58395 10.8233 2.11194 10.9714 2.6497 11.0899C3.35368 11.238 4.04788 11.3072 4.7323 11.3072C5.45583 11.3072 5.96426 11.238 6.25759 11.0998C6.55091 10.9615 6.70735 10.685 6.70735 10.29C6.70735 9.97401 6.5118 9.69751 6.13048 9.47038C5.73938 9.23337 5.15273 8.96674 4.36075 8.67048C3.74477 8.44335 3.18746 8.20634 2.68881 7.96933C2.19016 7.72245 1.75995 7.43607 1.40796 7.09044C1.05597 6.7448 0.782198 6.34979 0.586649 5.87578C0.391099 5.41164 0.293324 4.83888 0.293324 4.17724C0.293324 2.89345 0.772421 1.8763 1.74039 1.12578C2.71814 0.37526 4.04788 0 5.7296 0C6.57047 0 7.382 0.0691268 8.15442 0.227131C8.73129 0.335759 9.22016 0.454262 9.62104 0.572765C9.83614 0.641892 9.96325 0.859148 9.91436 1.08628L9.41571 3.26871C9.36682 3.51559 9.10283 3.65385 8.85839 3.58472C8.53574 3.48597 8.19353 3.39709 7.82198 3.30821C7.28422 3.18971 6.67802 3.13046 6.01315 3.13046C4.79096 3.13046 4.17498 3.46622 4.17498 4.14761C4.17498 4.30561 4.19454 4.44387 4.2532 4.57225C4.30209 4.69075 4.40964 4.80925 4.56608 4.91788C4.72252 5.02651 4.93763 5.15489 5.2114 5.28326C5.48517 5.41164 5.82738 5.55977 6.24781 5.71778C7.10823 6.03378 7.82198 6.34979 8.38908 6.65593C8.94639 6.96206 9.39616 7.29782 9.71881 7.65333C10.0415 8.00884 10.2761 8.40385 10.4032 8.83836C10.5303 9.27287 10.6086 9.77651 10.6086 10.3493Z" fill="#1A1A1A"/>
<path d="M24.0037 3.28845C23.8082 2.58731 23.4757 2.00467 23.0162 1.5109C22.5469 1.02701 21.9309 0.651755 21.1585 0.385123C20.3763 0.118491 19.4181 -0.0098877 18.2546 -0.0098877C17.795 -0.0098877 17.3452 0.0197381 16.8955 0.0592391C16.4457 0.0987402 16.0155 0.157992 15.6146 0.217243C15.204 0.276495 14.8324 0.345622 14.5 0.424624C14.324 0.464125 14.1676 0.503626 14.0209 0.543127C13.8058 0.602378 13.6689 0.809759 13.6982 1.02701L14.06 3.27857C14.0991 3.53533 14.3533 3.69333 14.6076 3.62421C14.9693 3.51558 15.38 3.43658 15.82 3.36745C16.4751 3.2687 17.1301 3.2292 17.8048 3.2292C18.8021 3.2292 19.5061 3.4267 19.9167 3.83159C20.3176 4.2266 20.5229 4.75986 20.5229 5.4215V5.78689C20.2785 5.71776 19.9558 5.65851 19.5647 5.61901C19.1639 5.57951 18.7141 5.54988 18.2057 5.54988C17.4528 5.54988 16.7195 5.61901 16.0155 5.76714C15.3115 5.91527 14.6956 6.15227 14.148 6.48803C13.6005 6.81392 13.1703 7.2583 12.8476 7.82119C12.5152 8.37421 12.3587 9.0556 12.3587 9.8555C12.3587 10.6949 12.4956 11.396 12.7792 11.9688C13.0627 12.5416 13.4636 13.0057 13.9916 13.3612C14.5196 13.7167 15.1453 13.9735 15.8786 14.1315C16.6119 14.2895 17.4235 14.3685 18.3132 14.3685C19.7407 14.3685 20.9531 14.2796 21.9504 14.1216C22.762 13.9834 23.4268 13.8747 23.945 13.7661C24.1504 13.7266 24.2873 13.5488 24.2873 13.3415V5.60913C24.297 4.75986 24.1993 3.98959 24.0037 3.28845ZM20.5229 11.2775C20.3176 11.317 20.0243 11.3368 19.6821 11.3565C19.3301 11.3763 18.9585 11.3862 18.5772 11.3862C17.8537 11.3862 17.2866 11.2677 16.8759 11.0307C16.4653 10.7936 16.2599 10.3789 16.2599 9.76662C16.2599 9.45061 16.3284 9.19385 16.4653 8.98647C16.6022 8.77909 16.7977 8.61121 17.0421 8.49271C17.2866 8.36433 17.5701 8.28533 17.9026 8.24583C18.2252 8.20633 18.5772 8.1767 18.939 8.1767C19.203 8.1767 19.4865 8.19645 19.8092 8.22608C20.1221 8.26558 20.3665 8.29521 20.5229 8.33471V11.2775Z" fill="#1A1A1A"/>
<path d="M38.3473 0.750503C38.0735 0.681376 37.7802 0.612249 37.4673 0.543122C37.0175 0.44437 36.5482 0.365368 36.0593 0.296241C35.5705 0.227114 35.0718 0.167862 34.5732 0.128361C34.0745 0.0789851 33.5856 0.0592346 33.1163 0.0592346C32.0115 0.0592346 31.0142 0.227114 30.1342 0.543122C29.2542 0.859131 28.5111 1.32327 27.9049 1.91578C27.2987 2.5083 26.8294 3.20944 26.5165 4.03896C26.2036 4.86849 26.0374 5.78689 26.0374 6.79416C26.0374 8.81859 26.5458 10.3888 27.5627 11.5047C28.5796 12.6304 30.0462 13.1835 31.9626 13.1835C32.4906 13.1835 32.9794 13.1341 33.4292 13.0452C33.879 12.9464 34.3092 12.8082 34.7394 12.6107V13.1045C34.7394 13.8747 34.5047 14.4969 34.0354 14.9808C33.5661 15.4745 32.7741 15.7115 31.6497 15.7115C30.7893 15.7115 30.0169 15.6424 29.3422 15.5041C28.8338 15.3955 28.3449 15.2671 27.8756 15.0993C27.6311 15.0104 27.3574 15.1684 27.2987 15.4251L26.8001 17.8051C26.7512 18.0223 26.8783 18.2396 27.0934 18.3087C27.7094 18.4963 28.3645 18.6543 29.0684 18.7729C29.9093 18.921 30.7599 18.9901 31.6008 18.9901C34.0061 18.9901 35.7856 18.447 36.9393 17.3607C38.093 16.2744 38.6699 14.6055 38.6699 12.3638V1.16526C38.6601 0.967758 38.533 0.799879 38.3473 0.750503ZM34.7394 9.52961C34.4949 9.66786 34.1918 9.78637 33.8398 9.89499C33.4879 10.0036 33.1065 10.053 32.7057 10.053C30.9262 10.053 30.0462 8.96672 30.0462 6.79416C30.0462 5.74738 30.3004 4.88824 30.8088 4.20684C31.3173 3.53533 32.0897 3.18969 33.1261 3.18969C33.4781 3.18969 33.791 3.19957 34.0452 3.22919C34.3092 3.25882 34.534 3.28844 34.7296 3.31807V9.52961H34.7394Z" fill="#1A1A1A"/>
<path d="M51.7131 1.78742C50.5691 0.592516 49.0145 0 47.0492 0C46.2084 0 45.387 0.158004 44.5853 0.474013C43.7933 0.790021 43.0796 1.24428 42.4636 1.85655C41.8476 2.46882 41.3489 3.22921 40.9774 4.13773C40.6059 5.04626 40.4103 6.12266 40.4103 7.33732C40.4103 8.34459 40.557 9.29262 40.8503 10.1518C41.1436 11.0307 41.5934 11.7812 42.1996 12.4132C42.8058 13.0452 43.5684 13.5489 44.4875 13.9142C45.4066 14.2796 46.5017 14.4673 47.7434 14.4673C48.2421 14.4673 48.7309 14.4376 49.2198 14.3883C49.7185 14.329 50.1682 14.2698 50.6082 14.1907C51.0384 14.1117 51.4295 14.0229 51.7815 13.9142C51.9771 13.855 52.1531 13.7957 52.2997 13.7365C52.4953 13.6674 52.6028 13.46 52.5637 13.2625L52.1824 10.9517C52.1433 10.685 51.8695 10.527 51.6153 10.6159C51.2633 10.7245 50.8624 10.8233 50.3931 10.9122C49.6989 11.0504 48.9949 11.1097 48.2714 11.1097C47.147 11.1097 46.2475 10.8727 45.5826 10.4085C44.9177 9.93451 44.5364 9.3025 44.4484 8.5026H52.9548C53.1895 8.5026 53.3752 8.32484 53.3948 8.10759C53.4046 8.00884 53.4046 7.90021 53.4144 7.79158C53.4339 7.51507 53.4437 7.26819 53.4437 7.05094C53.4241 4.73025 52.857 2.98233 51.7131 1.78742ZM44.4386 5.84615C44.4875 5.52027 44.5755 5.19439 44.6928 4.8685C44.8102 4.5525 44.9666 4.26611 45.1817 4.01923C45.387 3.77235 45.6608 3.58472 45.9737 3.42672C46.2866 3.27859 46.6679 3.20946 47.1079 3.20946C47.5576 3.20946 47.939 3.28846 48.2518 3.44647C48.5549 3.60447 48.8092 3.80198 49.0145 4.04886C49.2198 4.29574 49.3665 4.57225 49.4643 4.88825C49.562 5.20426 49.6207 5.52027 49.6305 5.85603H44.4386V5.84615Z" fill="#1A1A1A"/>
<path d="M71.1703 11.08L71.5809 13.4007C71.62 13.6081 71.4929 13.8155 71.2876 13.8846C70.8965 14.0229 70.4467 14.1414 69.9285 14.2401C69.2441 14.3784 68.4815 14.4475 67.6602 14.4475C66.3989 14.4475 65.3038 14.2599 64.3945 13.8846C63.4852 13.5093 62.7323 13.0057 62.1359 12.3539C61.5492 11.712 61.119 10.9516 60.8453 10.0728C60.5715 9.19385 60.4346 8.24583 60.4346 7.2188C60.4346 6.23128 60.6008 5.29313 60.9235 4.41423C61.2461 3.53533 61.7155 2.76506 62.3314 2.11329C62.9474 1.46153 63.6905 0.948012 64.5705 0.562877C65.4504 0.177742 66.4575 -0.0098877 67.5819 -0.0098877C68.325 -0.0098877 68.9997 0.0592391 69.6059 0.187617C70.0947 0.296245 70.5738 0.434499 71.0432 0.602378C71.2485 0.68138 71.3658 0.908511 71.3071 1.11589L70.7107 3.39708C70.6423 3.63408 70.3978 3.78221 70.1632 3.70321C69.9187 3.62421 69.6548 3.55508 69.381 3.48595C68.941 3.37733 68.4521 3.32795 67.9046 3.32795C66.7508 3.32795 65.8807 3.68346 65.3038 4.40435C64.7367 5.11537 64.4434 6.05352 64.4434 7.2188C64.4434 8.45321 64.7171 9.41111 65.2451 10.0925C65.7829 10.7739 66.7215 11.1097 68.0513 11.1097C68.5303 11.1097 69.0388 11.0702 69.5765 10.9714C69.9383 10.9121 70.2805 10.8331 70.613 10.7245C70.8574 10.6653 71.1214 10.8331 71.1703 11.08Z" fill="#3873F9"/>
<path d="M86.5014 4.25624C86.1689 3.36746 85.6996 2.60707 85.1032 1.98493C84.5067 1.35291 83.7832 0.869023 82.9521 0.523389C82.121 0.177755 81.202 0 80.2047 0C79.2171 0 78.3078 0.177755 77.4767 0.523389C76.6457 0.869023 75.9221 1.36279 75.3159 1.98493C74.7097 2.60707 74.2404 3.36746 73.8884 4.25624C73.5462 5.14501 73.38 6.13254 73.38 7.20894C73.38 8.28534 73.5462 9.27287 73.8786 10.1715C74.2111 11.0702 74.6804 11.8306 75.2768 12.4725C75.8732 13.1045 76.5968 13.5982 77.4279 13.9439C78.2589 14.2895 79.1878 14.4673 80.2047 14.4673C81.2411 14.4673 82.1797 14.2895 83.0108 13.9439C83.8419 13.5982 84.5654 13.1045 85.1618 12.4725C85.7583 11.8404 86.2178 11.0702 86.5307 10.1715C86.8533 9.27287 87.0098 8.28534 87.0098 7.20894C87.0098 6.13254 86.8338 5.14501 86.5014 4.25624ZM82.2677 10.0629C81.7886 10.764 81.0944 11.1195 80.2047 11.1195C79.3149 11.1195 78.6109 10.764 78.1221 10.0629C77.6332 9.36175 77.3887 8.40385 77.3887 7.20894C77.3887 6.01403 77.6332 5.06601 78.1221 4.37474C78.6207 3.69335 79.3149 3.34771 80.2047 3.34771C81.0944 3.34771 81.7886 3.69335 82.2677 4.37474C82.7566 5.06601 82.9912 6.01403 82.9912 7.20894C82.9912 8.40385 82.7566 9.36175 82.2677 10.0629Z" fill="#3873F9"/>
</g>
<defs>
<clipPath id="clip0">
<rect width="87" height="19" fill="white"/>
</clipPath>
</defs>
</svg>
