<svg width="21" height="19" viewBox="0 0 21 19" fill="none" xmlns="http://www.w3.org/2000/svg">
<path d="M4.26489 4.20201C3.80945 3.7543 3.52954 3.13635 3.52954 2.46011C3.52954 1.10064 4.64679 0 6.03208 0H14.9748C15.6651 0 16.2913 0.27516 16.742 0.722877C17.1761 1.14961 17.4513 1.73024 17.4726 2.38316V2.54173C17.4323 3.86156 16.3269 4.92023 14.9748 4.92023H6.03208C5.34181 4.92023 4.71558 4.64507 4.26489 4.20201Z" fill="#3873F9"/>
<path d="M19.2708 9.0826C18.2033 8.03326 16.7255 7.38034 15.1006 7.38034H5.90647C2.63775 7.38034 0 9.9827 0 13.1867C0 14.7957 0.664182 16.2437 1.73162 17.2977C2.79431 18.3471 4.26974 19 5.90884 19H15.1006C18.3599 19 21.0024 16.3976 21.0024 13.189C21 11.5824 20.3429 10.1366 19.2708 9.0826ZM14.9702 15.6468H6.03219C5.33717 15.6468 4.71569 15.3716 4.26025 14.9286C3.80956 14.4762 3.52965 13.8583 3.52965 13.1867C3.52965 11.8272 4.64927 10.7266 6.03219 10.7266H14.9702C15.6699 10.7266 16.2867 11.0017 16.7469 11.4448C17.1928 11.8925 17.4727 12.5104 17.4727 13.1867C17.4727 14.5415 16.3531 15.6468 14.9702 15.6468Z" fill="#1A1A1A"/>
</svg>
