<svg width="175" height="50" viewBox="0 0 175 50" fill="none" xmlns="http://www.w3.org/2000/svg">
<g clip-path="url(#clip0)">
<path d="M81.0461 28.3874C81.0461 29.8624 80.4876 30.9749 79.3582 31.7249C78.2287 32.4874 76.6525 32.8624 74.6046 32.8624C73.2642 32.8624 72.1472 32.7499 71.2535 32.5249C70.633 32.3749 70.1489 32.2249 69.789 32.1124C69.6028 32.0499 69.4787 31.8624 69.4663 31.6624C69.4663 31.6249 69.4663 31.5999 69.4787 31.5624L70 29.0499C70.0621 28.7874 70.3103 28.6249 70.5709 28.6874C70.5957 28.6874 70.6081 28.6999 70.633 28.6999C71.1915 28.8999 71.7748 29.0624 72.3582 29.1749C73.1028 29.3374 73.8599 29.4124 74.6294 29.4124C75.4113 29.4124 75.9699 29.3374 76.2926 29.1874C76.6152 29.0374 76.7766 28.7374 76.7766 28.3124C76.7766 27.9749 76.5656 27.6749 76.1436 27.4249C75.7216 27.1749 75.0762 26.8749 74.2199 26.5624C73.5993 26.3374 72.9911 26.0874 72.3954 25.7999C71.8865 25.5624 71.4149 25.2374 70.9929 24.8499C70.6082 24.4749 70.3103 24.0249 70.1117 23.5249C69.8883 22.9374 69.7766 22.3124 69.8014 21.6749C69.8014 20.2749 70.3227 19.1749 71.3901 18.3624C72.445 17.5499 73.8847 17.1374 75.7216 17.1374C76.6152 17.1374 77.4965 17.2124 78.3653 17.3874C78.9114 17.4874 79.445 17.6124 79.9663 17.7624C80.2021 17.8374 80.3387 18.0749 80.289 18.3249L79.7429 20.6999C79.6809 20.9624 79.4202 21.1124 79.172 21.0499C79.1596 21.0499 79.1472 21.0374 79.1348 21.0374C78.7748 20.9249 78.4025 20.8249 78.0053 20.7374C77.3599 20.5999 76.7021 20.5374 76.0319 20.5374C74.6915 20.5374 74.0213 20.8999 74.0213 21.6374C74.0213 21.7999 74.0461 21.9499 74.1082 22.0999C74.1826 22.2499 74.3067 22.3874 74.4557 22.4874C74.6791 22.6374 74.9149 22.7749 75.1631 22.8874C75.461 23.0249 75.8333 23.1874 76.2926 23.3624C77.0869 23.6499 77.8688 23.9874 78.6259 24.3749C79.1596 24.6499 79.656 25.0249 80.078 25.4624C80.4255 25.8249 80.6738 26.2749 80.8227 26.7499C80.984 27.2749 81.0585 27.8374 81.0461 28.3874Z" fill="#000714"/>
<path d="M95.6542 20.7124C95.4556 19.9874 95.0957 19.3249 94.5744 18.7874C94.0655 18.2624 93.3829 17.8499 92.5513 17.5624C91.7074 17.2749 90.6524 17.1374 89.3865 17.1374C88.89 17.1374 88.3936 17.1624 87.9095 17.2124C87.4255 17.2499 86.9538 17.3249 86.507 17.3874C86.0726 17.4499 85.6631 17.5249 85.2907 17.6124C85.1046 17.6499 84.9184 17.6999 84.7694 17.7374C84.5336 17.7999 84.3847 18.0249 84.4219 18.2624L84.8191 20.7124C84.8687 20.9749 85.117 21.1499 85.3776 21.0999C85.39 21.0999 85.4148 21.0874 85.4272 21.0874C85.8616 20.9624 86.3085 20.8749 86.7553 20.8124C87.4751 20.7124 88.195 20.6624 88.9148 20.6624C90.007 20.6624 90.7641 20.8749 91.2109 21.3124C91.6577 21.7499 91.8811 22.3249 91.8811 23.0374V23.4374C91.5336 23.3499 91.1861 23.2874 90.8386 23.2499C90.3421 23.1999 89.8457 23.1749 89.3616 23.1749C88.5549 23.1749 87.7606 23.2499 86.9787 23.4124C86.2588 23.5499 85.5762 23.8249 84.9432 24.1999C84.3475 24.5499 83.8634 25.0499 83.5283 25.6499C83.1684 26.2499 82.9946 26.9874 82.9946 27.8624C82.9946 28.7749 83.1436 29.5374 83.4538 30.1624C83.7517 30.7749 84.1985 31.2999 84.7694 31.6749C85.39 32.0874 86.0975 32.3749 86.8297 32.5124C87.7109 32.6874 88.5921 32.7749 89.4857 32.7749C90.8138 32.7874 92.1418 32.6999 93.4574 32.4999C94.3386 32.3499 95.0584 32.2249 95.6294 32.1124C95.8528 32.0749 96.0017 31.8749 96.0017 31.6499V23.2374C95.9769 22.3874 95.8652 21.5374 95.6542 20.7124ZM91.8563 29.3999C91.546 29.4499 91.2482 29.4749 90.9379 29.4874C90.5531 29.4999 90.156 29.5124 89.734 29.5124C88.9397 29.5124 88.3315 29.3874 87.8723 29.1249C87.4131 28.8624 87.2021 28.4124 87.2021 27.7499C87.1897 27.4499 87.2765 27.1499 87.4255 26.8999C87.5868 26.6624 87.8102 26.4874 88.0584 26.3624C88.3563 26.2124 88.6666 26.1249 88.9893 26.0874C89.3616 26.0374 89.7464 26.0124 90.1187 26.0124C90.4414 26.0124 90.7517 26.0374 91.062 26.0624C91.4095 26.0999 91.6701 26.1374 91.8439 26.1749L91.8563 29.3999Z" fill="#000714"/>
<path d="M111.293 17.9501C110.995 17.8751 110.672 17.8001 110.324 17.7251C109.828 17.6251 109.332 17.5376 108.785 17.4626C108.239 17.3876 107.706 17.3251 107.16 17.2751C106.613 17.2251 106.08 17.2001 105.571 17.2001C104.466 17.1876 103.362 17.3626 102.319 17.7251C101.413 18.0376 100.582 18.5501 99.8989 19.2126C99.2287 19.8626 98.7198 20.6501 98.3847 21.5251C98.0248 22.4876 97.851 23.5001 97.8634 24.5126C97.8634 26.7126 98.4219 28.4126 99.5265 29.6376C100.644 30.8626 102.245 31.4626 104.33 31.4626C104.863 31.4626 105.397 31.4126 105.931 31.3001C106.427 31.2001 106.899 31.0376 107.358 30.8251V31.3626C107.358 32.2001 107.097 32.8751 106.601 33.4001C106.092 33.9251 105.223 34.2001 103.995 34.2001C103.151 34.2126 102.307 34.1376 101.475 33.975C100.929 33.8626 100.395 33.725 99.8741 33.5375C99.6258 33.4501 99.3528 33.5876 99.2659 33.85C99.2659 33.8626 99.2535 33.8876 99.2535 33.9001L98.7074 36.4876C98.6577 36.725 98.7943 36.9625 99.0301 37.0375C99.7375 37.25 100.457 37.4125 101.177 37.5501C102.083 37.7126 103.014 37.7875 103.933 37.7875C106.564 37.7875 108.5 37.2001 109.753 36.0126C111.007 34.8251 111.64 33.0126 111.64 30.5751V18.3876C111.64 18.1876 111.491 18.0001 111.293 17.9501ZM107.346 27.5001C107.035 27.6626 106.713 27.8001 106.365 27.9001C105.968 28.0126 105.546 28.0751 105.124 28.0626C103.188 28.0626 102.22 26.8751 102.22 24.5126C102.22 23.3751 102.493 22.4376 103.051 21.7001C103.61 20.9626 104.454 20.6001 105.583 20.6001C105.968 20.6001 106.303 20.6126 106.589 20.6376C106.874 20.6626 107.122 20.7001 107.333 20.7376L107.346 27.5001Z" fill="#000714"/>
<path d="M125.863 19.0875C124.622 17.7875 122.922 17.15 120.775 17.15C119.856 17.15 118.95 17.325 118.094 17.6625C117.225 18 116.443 18.5125 115.785 19.1625C115.078 19.875 114.532 20.7125 114.16 21.65C113.75 22.6375 113.539 23.8 113.539 25.125C113.527 26.1625 113.688 27.2 114.011 28.1875C114.308 29.1125 114.805 29.95 115.475 30.6375C116.183 31.3625 117.039 31.9125 117.982 32.275C118.988 32.675 120.179 32.875 121.532 32.875C122.066 32.875 122.612 32.85 123.145 32.7875C123.679 32.725 124.188 32.65 124.66 32.575C125.094 32.5 125.516 32.4 125.938 32.275C126.149 32.2125 126.335 32.15 126.509 32.0875C126.72 32.0125 126.844 31.8 126.794 31.575L126.372 29.0625C126.323 28.8 126.087 28.625 125.826 28.675C125.801 28.675 125.777 28.6875 125.752 28.7C125.317 28.8375 124.871 28.95 124.424 29.025C123.667 29.175 122.885 29.2375 122.115 29.2375C120.887 29.2375 119.906 28.975 119.186 28.475C118.479 28.0125 118.032 27.25 117.945 26.4H127.216C127.464 26.4 127.675 26.2125 127.688 25.9625C127.7 25.85 127.7 25.7375 127.713 25.6125C127.738 25.3125 127.738 25.05 127.738 24.8C127.725 22.2875 127.105 20.375 125.863 19.0875ZM117.933 23.5C117.995 23.1375 118.082 22.7875 118.206 22.4375C118.33 22.1 118.504 21.7875 118.739 21.5125C118.975 21.2375 119.273 21.025 119.596 20.875C119.98 20.7 120.415 20.625 120.837 20.6375C121.271 20.625 121.693 20.7125 122.09 20.8875C122.413 21.05 122.686 21.275 122.922 21.5375C123.145 21.8 123.307 22.1125 123.406 22.45C123.505 22.7875 123.567 23.1375 123.592 23.5H117.933Z" fill="#000714"/>
<path d="M148.353 29.1875L148.8 31.7125C148.837 31.9375 148.7 32.1625 148.489 32.2375C148.005 32.4 147.509 32.5375 147 32.625C146.181 32.7875 145.362 32.8625 144.53 32.85C143.153 32.85 141.961 32.6375 140.968 32.2375C140.037 31.875 139.193 31.3125 138.511 30.575C137.865 29.8625 137.381 29.0125 137.108 28.0875C136.81 27.075 136.661 26.0375 136.661 24.9875C136.661 23.95 136.835 22.9125 137.195 21.9375C137.53 21.0125 138.051 20.1625 138.734 19.4375C139.429 18.7125 140.248 18.1375 141.167 17.75C142.122 17.3375 143.215 17.125 144.443 17.125C145.188 17.1125 145.933 17.1875 146.665 17.3375C147.199 17.45 147.72 17.6 148.229 17.7875C148.452 17.875 148.576 18.1125 148.514 18.35L147.856 20.825C147.782 21.0875 147.521 21.2375 147.261 21.1625H147.248C146.988 21.075 146.69 21 146.392 20.925C145.858 20.8 145.325 20.75 144.778 20.75C143.512 20.75 142.569 21.1375 141.949 21.9125C141.328 22.6875 141.018 23.7125 141.018 24.975C141.018 26.325 141.316 27.3625 141.899 28.1C142.482 28.8375 143.5 29.2125 144.965 29.2125C145.523 29.2125 146.082 29.1625 146.628 29.0625C147.012 29 147.385 28.9125 147.757 28.8C148.005 28.725 148.266 28.8625 148.353 29.1125C148.34 29.15 148.34 29.175 148.353 29.1875Z" fill="#000714"/>
<path d="M165.071 21.7624C164.736 20.8499 164.214 19.9999 163.544 19.2999C162.886 18.6124 162.08 18.0624 161.198 17.7124C159.275 16.9499 157.14 16.9499 155.216 17.7124C154.335 18.0749 153.528 18.6124 152.858 19.2999C152.175 20.0124 151.654 20.8499 151.307 21.7624C150.922 22.7874 150.736 23.8749 150.748 24.9749C150.736 26.0749 150.922 27.1624 151.294 28.1874C151.629 29.1124 152.151 29.9625 152.808 30.6875C153.466 31.3875 154.273 31.9249 155.154 32.2874C156.122 32.675 157.152 32.875 158.183 32.8625C159.225 32.875 160.268 32.6875 161.248 32.2874C162.129 31.9249 162.936 31.375 163.594 30.6875C164.264 29.9749 164.773 29.1124 165.083 28.1874C165.443 27.1499 165.617 26.0624 165.605 24.9749C165.629 23.8749 165.443 22.7874 165.071 21.7624ZM160.454 28.0749C159.933 28.8374 159.175 29.2249 158.195 29.2249C157.214 29.2249 156.457 28.8374 155.924 28.0749C155.39 27.3124 155.129 26.2749 155.129 24.9749C155.129 23.6749 155.402 22.6499 155.924 21.8874C156.457 21.1374 157.214 20.7749 158.195 20.7749C159.175 20.7749 159.92 21.1499 160.454 21.8874C160.975 22.6249 161.248 23.6624 161.248 24.9749C161.248 26.2749 160.988 27.3124 160.454 28.0749Z" fill="#000714"/>
<path d="M19.1507 12.575C16.9167 10.325 16.9043 6.67499 19.1383 4.41249C20.2181 3.32499 21.6702 2.71249 23.1968 2.71249H43.6632C46.7536 2.72499 49.2855 5.18749 49.3848 8.29999V8.67499C49.2855 11.7875 46.7536 14.25 43.6632 14.25H23.1844C21.6702 14.2625 20.2181 13.6625 19.1507 12.575Z" fill="#3873F9"/>
<path d="M53.4929 24.025C50.961 21.475 47.5355 20.0375 43.9486 20.0375H22.899C15.4273 20.0375 9.37061 26.1375 9.37061 33.6625C9.37061 41.1875 15.4273 47.2875 22.899 47.2875H43.9362C51.3954 47.2875 57.4397 41.1875 57.4397 33.6625C57.4646 30.0375 56.0373 26.5625 53.4929 24.025ZM43.6507 39.425H23.1844C21.6702 39.425 20.2057 38.825 19.1259 37.7375C18.0585 36.65 17.4628 35.175 17.4504 33.65C17.4504 30.4625 20.0071 27.8875 23.172 27.875C23.172 27.875 23.172 27.875 23.1844 27.875H43.6383C46.8032 27.875 49.3724 30.4625 49.3724 33.65C49.3724 36.8375 46.8156 39.4125 43.6507 39.425Z" fill="#1A1A1A"/>
<path d="M91.0746 26.0751C90.7643 26.0376 90.4416 26.0251 90.1313 26.0251C90.1189 26.0251 90.1065 26.0251 90.0941 26.0251C89.7218 26.0251 89.3618 26.0501 88.9895 26.1001C88.6668 26.1376 88.3441 26.2251 88.0586 26.3751C87.798 26.4876 87.587 26.6751 87.4257 26.9126C87.2643 27.1626 87.1898 27.4626 87.2023 27.7626C87.2023 28.4251 87.4257 28.8751 87.8725 29.1376C88.3317 29.4001 88.9398 29.5251 89.7342 29.5251C90.1561 29.5251 90.5533 29.5126 90.9381 29.5001C91.2483 29.4876 91.5586 29.4626 91.8565 29.4126V26.2001C91.6827 26.1501 91.4221 26.1126 91.0746 26.0751Z" fill="white"/>
<path d="M105.596 20.6C104.466 20.6 103.622 20.9625 103.064 21.7C102.505 22.4375 102.232 23.375 102.232 24.5125C102.232 26.875 103.201 28.0625 105.137 28.0625C105.149 28.0625 105.162 28.0625 105.174 28.0625C105.583 28.0625 105.981 28 106.378 27.9C106.713 27.8 107.048 27.675 107.358 27.5V20.7375C107.147 20.7 106.899 20.6625 106.614 20.6375C106.316 20.6125 105.981 20.6 105.596 20.6ZM105.472 26.15C105.372 26.1625 105.273 26.1625 105.174 26.1625H105.149H105.137H105.124C104.864 26.1625 104.529 26.125 104.404 25.9625C104.33 25.875 104.107 25.525 104.107 24.5125C104.107 23.8 104.255 23.25 104.553 22.85C104.628 22.75 104.802 22.525 105.459 22.5V26.15H105.472Z" fill="white"/>
<path d="M122.922 21.5376C122.686 21.2626 122.401 21.0501 122.09 20.8876C121.731 20.7251 121.333 20.6376 120.924 20.6376C120.899 20.6376 120.862 20.6376 120.837 20.6376C120.812 20.6376 120.787 20.6376 120.762 20.6376C120.365 20.6376 119.968 20.7251 119.608 20.8751C119.285 21.0251 118.988 21.2376 118.752 21.5126C118.516 21.7876 118.342 22.1001 118.218 22.4376C118.094 22.7876 118.007 23.1376 117.945 23.5001H123.605C123.58 23.1501 123.518 22.7876 123.418 22.4501C123.307 22.1126 123.133 21.8126 122.922 21.5376Z" fill="white"/>
<path d="M120.775 15.2501C119.621 15.2501 118.479 15.4626 117.412 15.8876C116.307 16.3251 115.314 16.9626 114.47 17.8001L114.458 17.8126L114.445 17.8251C114.11 18.1626 113.8 18.5251 113.527 18.9001V18.4126C113.527 17.3251 112.807 16.3876 111.764 16.1251C111.479 16.0501 111.144 15.9626 110.722 15.8751H110.709H110.697C110.126 15.7626 109.58 15.6626 109.034 15.5876C108.438 15.5001 107.88 15.4376 107.309 15.3876C106.663 15.3376 106.092 15.3001 105.571 15.3001C105.522 15.3001 105.472 15.3001 105.422 15.3001C104.144 15.3001 102.89 15.5126 101.686 15.9376C100.52 16.3501 99.4648 16.9876 98.5712 17.8501C98.0499 18.3501 97.6031 18.9251 97.2308 19.5501C96.9329 18.7876 96.4861 18.0751 95.9152 17.4751L95.9028 17.4626L95.8903 17.4501C95.1705 16.7001 94.2272 16.1376 93.1102 15.7501C92.0801 15.4001 90.8141 15.2251 89.3496 15.2251C88.8407 15.2251 88.2946 15.2501 87.7113 15.3001C87.2024 15.3501 86.7059 15.4126 86.2591 15.4751L86.2095 15.4876C85.7627 15.5501 85.3035 15.6376 84.8442 15.7376C84.6208 15.7876 84.4223 15.8376 84.2485 15.8876C83.0818 16.1876 82.3371 17.3251 82.5109 18.5376V18.5501V18.5626L82.9081 21.0126V21.0251V21.0376C83.0198 21.6751 83.3797 22.2126 83.8762 22.5626C83.0322 23.0751 82.3123 23.8001 81.8159 24.6501C81.6918 24.4751 81.5428 24.3001 81.3939 24.1376L81.3815 24.1251L81.3691 24.1126C80.8974 23.6251 80.3762 23.2126 79.7928 22.8626C80.6368 22.6501 81.307 21.9876 81.518 21.1126V21.1001V21.0876L82.0641 18.7126C82.3372 17.5126 81.6421 16.2751 80.463 15.9126H80.4506H80.4382C79.8549 15.7376 79.2467 15.5876 78.6386 15.4876C77.6829 15.3001 76.69 15.2126 75.7219 15.2126H75.6598C73.4134 15.2126 71.5765 15.7626 70.1864 16.8251C68.6723 17.9876 67.8655 19.6501 67.8655 21.6251C67.8407 22.5001 67.9896 23.3501 68.2999 24.1751L68.3123 24.1876L68.3247 24.2001C68.6226 24.9501 69.0694 25.6126 69.6528 26.1751L69.6652 26.1876L69.6776 26.2001C69.8886 26.4001 70.0996 26.5751 70.3354 26.7501C69.268 26.8001 68.362 27.5501 68.1262 28.6126V28.6251V28.6376L67.6049 31.1251C67.5676 31.3126 67.5428 31.5126 67.5552 31.7001C67.5801 32.6751 68.213 33.5501 69.1315 33.8751L69.1563 33.8876L69.1811 33.9001C69.6155 34.0376 70.1616 34.2001 70.7698 34.3501C71.8123 34.6251 73.0535 34.7501 74.5801 34.7501C77.0251 34.7501 78.924 34.2751 80.3762 33.3001C81.0712 32.8376 81.6173 32.2626 82.0393 31.6001C82.4613 32.2501 83.0074 32.8126 83.6652 33.2501C84.4967 33.8001 85.4152 34.1751 86.3833 34.3626C87.3513 34.5626 88.3318 34.6626 89.3123 34.6626C89.3372 34.6626 89.3744 34.6626 89.3992 34.6626C89.4861 34.6626 89.5854 34.6626 89.6723 34.6626C91.0003 34.6626 92.3407 34.5626 93.6439 34.3626H93.6563H93.6687C94.7237 34.1876 95.3815 34.0751 95.9152 33.9626C97.0074 33.7501 97.8017 32.7751 97.8017 31.6501V30.5751C97.901 30.6876 97.9879 30.8001 98.0872 30.9126C98.3602 31.2126 98.6581 31.4876 98.9684 31.7251C98.2485 31.9501 97.6528 32.5126 97.4045 33.2626C97.3797 33.3376 97.3549 33.4251 97.3425 33.5001L96.7964 36.0876C96.5357 37.2876 97.2556 38.5001 98.4347 38.8501C99.2042 39.0751 99.9985 39.2626 100.793 39.4126C101.811 39.5876 102.841 39.6751 103.871 39.6751C106.986 39.6751 109.369 38.9001 110.983 37.3876C112.509 35.9501 113.328 33.8751 113.452 31.2126C113.639 31.4626 113.85 31.7001 114.073 31.9251C114.967 32.8376 116.059 33.5501 117.238 34.0001C118.454 34.4751 119.869 34.7251 121.458 34.7251C122.053 34.7251 122.662 34.6876 123.257 34.6251H123.27H123.282C123.89 34.5501 124.424 34.4751 124.908 34.3876C125.405 34.3001 125.901 34.1876 126.373 34.0501H126.385H126.397C126.658 33.9751 126.869 33.9001 127.055 33.8251H127.068H127.08C128.135 33.4251 128.756 32.3376 128.569 31.2126L128.147 28.7126C128.11 28.5001 128.048 28.3001 127.961 28.1126C128.793 27.8001 129.401 27.0376 129.488 26.0876V26.0751V26.0626C129.488 25.9876 129.5 25.9251 129.5 25.8501C129.5 25.8001 129.5 25.7626 129.513 25.7126C129.538 25.3876 129.55 25.0751 129.55 24.7751C129.55 21.7626 128.743 19.3876 127.155 17.7376C125.616 16.0876 123.444 15.2501 120.775 15.2501ZM79.3708 31.7251C78.2414 32.4876 76.6652 32.8626 74.6173 32.8626C73.2769 32.8626 72.1598 32.7501 71.2662 32.5251C70.6457 32.3751 70.1616 32.2251 69.8017 32.1126C69.6155 32.0501 69.4914 31.8626 69.479 31.6626C69.479 31.6251 69.479 31.6001 69.4914 31.5626L70.0127 29.0501C70.0623 28.8251 70.2609 28.6751 70.4843 28.6751C70.5215 28.6751 70.5588 28.6751 70.5836 28.6876C70.6084 28.6876 70.6208 28.7001 70.6457 28.7001C71.2042 28.9001 71.7875 29.0626 72.3708 29.1751C73.1155 29.3376 73.8726 29.4126 74.6421 29.4126C75.424 29.4126 75.9825 29.3376 76.3052 29.1876C76.6279 29.0376 76.7893 28.7376 76.7893 28.3126C76.7893 27.9751 76.5783 27.6751 76.1563 27.4251C75.7343 27.1751 75.0889 26.8751 74.2325 26.5626C73.612 26.3376 73.0038 26.0876 72.4081 25.8001C71.8992 25.5626 71.4276 25.2376 71.0056 24.8501C70.6208 24.4751 70.323 24.0251 70.1244 23.5251C69.901 22.9376 69.7893 22.3126 69.8141 21.6751C69.8141 20.2751 70.3354 19.1751 71.4027 18.3626C72.4577 17.5501 73.8974 17.1376 75.7343 17.1376C75.7591 17.1376 75.7715 17.1376 75.7964 17.1376C76.6652 17.1376 77.5215 17.2251 78.3779 17.3876C78.924 17.4876 79.4577 17.6126 79.979 17.7626C80.2148 17.8376 80.3513 18.0751 80.3017 18.3251L79.7556 20.7001C79.7059 20.9251 79.5074 21.0626 79.2964 21.0626C79.2591 21.0626 79.2219 21.0626 79.1847 21.0501C79.1723 21.0501 79.1598 21.0376 79.1474 21.0376C78.7875 20.9251 78.4152 20.8251 78.018 20.7376C77.3974 20.6001 76.7645 20.5376 76.1439 20.5376C76.1191 20.5376 76.0818 20.5376 76.057 20.5376C74.7166 20.5376 74.0464 20.9001 74.0464 21.6376C74.0464 21.8001 74.0712 21.9501 74.1332 22.1001C74.2077 22.2501 74.3318 22.3876 74.4808 22.4876C74.7042 22.6376 74.94 22.7751 75.1882 22.8876C75.4861 23.0251 75.8584 23.1876 76.3176 23.3626C77.112 23.6501 77.8939 23.9876 78.651 24.3751C79.1847 24.6501 79.6811 25.0251 80.1031 25.4626C80.4506 25.8251 80.6989 26.2751 80.8478 26.7501C80.9967 27.2876 81.0712 27.8376 81.0712 28.4001C81.0464 29.8626 80.4879 30.9751 79.3708 31.7251ZM95.9648 31.6626C95.9648 31.8876 95.8035 32.0751 95.5925 32.1251C95.0216 32.2376 94.3017 32.3751 93.4205 32.5126C92.1918 32.7001 90.963 32.7876 89.7219 32.7876C89.635 32.7876 89.5481 32.7876 89.4489 32.7876C89.424 32.7876 89.3868 32.7876 89.362 32.7876C88.5056 32.7876 87.6368 32.7001 86.7928 32.5251C86.0606 32.3876 85.3655 32.1001 84.7325 31.6876C84.174 31.3126 83.7148 30.7876 83.4169 30.1751C83.1067 29.5501 82.9577 28.7876 82.9577 27.8751C82.9577 27.0001 83.1315 26.2626 83.4914 25.6626C83.8389 25.0626 84.323 24.5626 84.9063 24.2126C85.5393 23.8376 86.2219 23.5751 86.9418 23.4251C87.7113 23.2626 88.5056 23.1876 89.2875 23.1876C89.2999 23.1876 89.3123 23.1876 89.3247 23.1876C89.3496 23.1876 89.3744 23.1876 89.4116 23.1876C89.8833 23.1876 90.3425 23.2126 90.8141 23.2626C91.1616 23.3001 91.5215 23.3626 91.8567 23.4501V23.0501C91.8567 22.3251 91.6333 21.7626 91.1864 21.3251C90.7396 20.8876 89.9825 20.6751 88.8903 20.6751H88.8779C88.1581 20.6751 87.4382 20.7251 86.7308 20.8251C86.284 20.8876 85.8371 20.9876 85.4028 21.1001C85.3903 21.1001 85.3655 21.1126 85.3531 21.1126C85.3283 21.1126 85.2911 21.1251 85.2662 21.1251C85.0428 21.1251 84.8442 20.9626 84.7946 20.7251L84.3974 18.2751C84.3602 18.0376 84.5091 17.8126 84.745 17.7501C84.9063 17.7126 85.0801 17.6626 85.2662 17.6251C85.6386 17.5376 86.0481 17.4626 86.4825 17.4001C86.9169 17.3376 87.401 17.2626 87.885 17.2251C88.3691 17.1876 88.8655 17.1501 89.362 17.1501C90.6279 17.1501 91.6829 17.3001 92.5269 17.5751C93.3708 17.8626 94.0411 18.2626 94.5499 18.8001C95.0588 19.3376 95.4311 20.0001 95.6297 20.7251C95.8531 21.5501 95.9524 22.4001 95.9524 23.2501V31.6626H95.9648ZM111.64 30.6001C111.64 33.0376 111.007 34.8501 109.754 36.0376C108.5 37.2251 106.564 37.8126 103.933 37.8126C103.002 37.8126 102.084 37.7376 101.178 37.5751C100.458 37.4501 99.7379 37.2751 99.0304 37.0626C98.7946 37.0001 98.6581 36.7501 98.7077 36.5126L99.2538 33.9251C99.2538 33.9126 99.2662 33.8876 99.2662 33.8751C99.3283 33.6751 99.5269 33.5376 99.7255 33.5376C99.7751 33.5376 99.8247 33.5501 99.8744 33.5626C100.396 33.7501 100.929 33.8876 101.475 34.0001C102.257 34.1501 103.052 34.2251 103.846 34.2251C103.896 34.2251 103.945 34.2251 103.995 34.2251C105.224 34.2251 106.092 33.9501 106.601 33.4251C107.11 32.9001 107.358 32.2126 107.358 31.3876V30.8501C106.899 31.0626 106.428 31.2126 105.931 31.3251C105.422 31.4251 104.913 31.4876 104.392 31.4876C104.367 31.4876 104.355 31.4876 104.33 31.4876C102.245 31.4876 100.644 30.8751 99.5269 29.6626C98.4099 28.4376 97.8638 26.7376 97.8638 24.5376C97.8513 23.5126 98.0251 22.5001 98.385 21.5501C98.7077 20.6751 99.229 19.8876 99.8992 19.2376C100.594 18.5751 101.413 18.0626 102.319 17.7501C103.325 17.4001 104.38 17.2251 105.435 17.2251C105.484 17.2251 105.522 17.2251 105.571 17.2251C106.092 17.2251 106.614 17.2501 107.16 17.3001C107.706 17.3501 108.24 17.4126 108.786 17.4876C109.332 17.5626 109.828 17.6501 110.325 17.7501C110.672 17.8251 110.995 17.9001 111.293 17.9751C111.504 18.0251 111.64 18.2126 111.64 18.4251V30.6001ZM127.701 25.6126C127.688 25.7376 127.688 25.8501 127.676 25.9626C127.651 26.2126 127.452 26.4001 127.204 26.4001C127.204 26.4001 127.204 26.4001 127.192 26.4001H117.92C118.007 27.2501 118.454 28.0126 119.162 28.4751C119.881 28.9876 120.862 29.2376 122.091 29.2376C122.103 29.2376 122.103 29.2376 122.116 29.2376C122.885 29.2376 123.642 29.1626 124.399 29.0251C124.846 28.9501 125.293 28.8376 125.727 28.7001C125.752 28.6876 125.777 28.6876 125.802 28.6751C125.827 28.6751 125.851 28.6626 125.876 28.6626C126.1 28.6626 126.298 28.8251 126.335 29.0626L126.757 31.5751C126.795 31.8001 126.67 32.0126 126.472 32.0876C126.311 32.1501 126.124 32.2126 125.901 32.2751C125.479 32.4001 125.057 32.5001 124.623 32.5751C124.151 32.6626 123.655 32.7251 123.108 32.7876C122.575 32.8376 122.041 32.8751 121.495 32.8751C120.142 32.8751 118.951 32.6751 117.945 32.2751C117.002 31.9251 116.146 31.3626 115.438 30.6376C114.768 29.9376 114.272 29.1001 113.974 28.1876C113.651 27.2001 113.49 26.1626 113.502 25.1251C113.502 23.8001 113.713 22.6376 114.123 21.6501C114.495 20.7251 115.041 19.8751 115.749 19.1626C116.406 18.5126 117.201 18.0001 118.057 17.6626C118.913 17.3251 119.819 17.1501 120.738 17.1501C122.885 17.1501 124.585 17.8001 125.827 19.0876C127.068 20.3876 127.688 22.2876 127.701 24.8001C127.725 25.0501 127.725 25.3126 127.701 25.6126Z" fill="white"/>
<path d="M166.833 21.1C166.411 19.9375 165.766 18.8875 164.91 17.9875C164.053 17.1 163.048 16.4125 161.918 15.95H161.906H161.894C160.715 15.4875 159.486 15.25 158.22 15.25C156.954 15.25 155.725 15.4875 154.546 15.95H154.534H154.521C153.392 16.4125 152.374 17.0875 151.518 17.975C150.897 18.6125 150.388 19.3375 149.991 20.1125L150.326 18.8375C150.636 17.65 150.016 16.4375 148.874 16.0125C148.278 15.8 147.67 15.6125 147.05 15.4875C146.23 15.3125 145.399 15.2375 144.555 15.2375C144.518 15.2375 144.48 15.2375 144.443 15.2375C142.979 15.2375 141.626 15.5 140.434 16.0125C139.28 16.5 138.25 17.225 137.369 18.1375C136.512 19.05 135.855 20.1125 135.42 21.2875C134.986 22.475 134.762 23.725 134.775 24.9875C134.762 26.225 134.936 27.4625 135.296 28.65C135.656 29.8375 136.289 30.95 137.121 31.8625L137.133 31.875L137.145 31.8875C138.014 32.8125 139.106 33.55 140.285 34.0125C141.502 34.5 142.929 34.75 144.53 34.7625C144.567 34.7625 144.617 34.7625 144.654 34.7625C145.56 34.7625 146.479 34.675 147.372 34.5C147.956 34.3875 148.539 34.2375 149.097 34.05H149.11H149.122C150.202 33.675 150.847 32.575 150.674 31.4375V31.4125V31.3875L150.587 30.8625C150.847 31.2625 151.145 31.6375 151.48 31.9875L151.493 32L151.505 32.0125C152.362 32.9125 153.367 33.6 154.509 34.0625C155.675 34.5375 156.892 34.775 158.145 34.775C158.183 34.775 158.207 34.775 158.245 34.775C158.282 34.775 158.319 34.775 158.356 34.775C159.61 34.775 160.839 34.5375 162.005 34.075C163.147 33.6125 164.152 32.925 165.009 32.025L165.021 32.0125L165.034 32C165.89 31.0875 166.523 30.0125 166.933 28.825C167.355 27.5875 167.566 26.3 167.553 24.9875C167.516 23.65 167.293 22.35 166.833 21.1ZM148.477 32.2375C147.993 32.4 147.496 32.5375 146.988 32.625C146.206 32.775 145.424 32.85 144.629 32.85C144.592 32.85 144.555 32.85 144.518 32.85C143.14 32.85 141.949 32.6375 140.956 32.2375C140.025 31.875 139.181 31.3125 138.498 30.575C137.853 29.8625 137.369 29.0125 137.096 28.0875C136.798 27.075 136.649 26.0375 136.649 24.9875C136.649 23.95 136.823 22.9125 137.183 21.9375C137.518 21.0125 138.039 20.1625 138.722 19.4375C139.417 18.7125 140.236 18.1375 141.154 17.75C142.11 17.3375 143.202 17.125 144.431 17.125C144.468 17.125 144.505 17.125 144.543 17.125C145.25 17.125 145.957 17.2 146.652 17.3375C147.186 17.45 147.707 17.6 148.216 17.7875C148.44 17.875 148.564 18.1125 148.502 18.35L147.844 20.825C147.782 21.0375 147.596 21.175 147.385 21.175C147.347 21.175 147.298 21.175 147.261 21.1625H147.248C146.988 21.075 146.69 21 146.392 20.925C145.895 20.8125 145.374 20.75 144.865 20.75C144.84 20.75 144.816 20.75 144.778 20.75C143.512 20.75 142.569 21.1375 141.949 21.9125C141.328 22.6875 141.018 23.7125 141.018 24.975C141.018 26.325 141.316 27.3625 141.899 28.1C142.482 28.8375 143.5 29.2125 144.965 29.2125C145.523 29.2125 146.082 29.1625 146.628 29.0625C147.012 29 147.385 28.9125 147.757 28.8C147.807 28.7875 147.844 28.775 147.894 28.775C148.092 28.775 148.278 28.9125 148.34 29.1125C148.34 29.125 148.353 29.15 148.353 29.1625L148.8 31.6875C148.824 31.9375 148.7 32.1625 148.477 32.2375ZM147.881 26.9C147.645 26.9 147.41 26.9375 147.186 27H147.174H147.161C146.888 27.0875 146.603 27.15 146.317 27.2H146.305H146.293C145.846 27.275 145.386 27.3125 144.94 27.325C144.009 27.325 143.512 27.1125 143.351 26.925C143.041 26.5375 142.892 25.875 142.892 24.9875C142.892 24.175 143.066 23.55 143.413 23.1125C143.512 22.9875 143.785 22.65 144.778 22.65H144.791H144.803C144.828 22.65 144.84 22.65 144.865 22.65C145.238 22.65 145.61 22.6875 145.97 22.775C146.255 22.8375 146.479 22.9 146.652 22.9625L146.677 22.975L146.702 22.9875C146.715 22.9875 146.739 23 146.752 23C146.963 23.0625 147.174 23.0875 147.385 23.0875C148.105 23.0875 148.762 22.7625 149.209 22.225C148.986 23.125 148.874 24.0375 148.886 24.975C148.874 25.7375 148.949 26.5 149.097 27.2375C148.738 27.025 148.316 26.9 147.881 26.9ZM165.096 28.1875C164.773 29.1125 164.277 29.9625 163.606 30.6875C162.949 31.3875 162.142 31.925 161.261 32.2875C160.317 32.6625 159.324 32.8625 158.307 32.8625C158.269 32.8625 158.232 32.8625 158.195 32.8625C158.158 32.8625 158.133 32.8625 158.096 32.8625C157.09 32.8625 156.097 32.675 155.167 32.2875C154.285 31.925 153.479 31.375 152.821 30.6875C152.151 29.9625 151.629 29.1125 151.307 28.1875C150.934 27.1625 150.748 26.0625 150.761 24.975C150.748 23.875 150.934 22.7875 151.319 21.7625C151.667 20.8375 152.188 20 152.871 19.3C153.541 18.6125 154.347 18.075 155.229 17.7125C156.184 17.3375 157.202 17.1375 158.22 17.1375C159.238 17.1375 160.243 17.325 161.211 17.7125C162.092 18.075 162.899 18.6125 163.557 19.3C164.227 20.0125 164.748 20.85 165.083 21.7625C165.456 22.7875 165.642 23.875 165.629 24.975C165.629 26.075 165.456 27.1625 165.096 28.1875Z" fill="white"/>
<path d="M158.195 20.7751C157.215 20.7751 156.458 21.1376 155.924 21.8876C155.39 22.6376 155.13 23.6626 155.13 24.9751C155.13 26.2751 155.39 27.3126 155.924 28.0751C156.458 28.8376 157.227 29.2251 158.195 29.2251C159.176 29.2251 159.92 28.8376 160.454 28.0751C160.988 27.3126 161.248 26.2751 161.248 24.9751C161.248 23.6751 160.975 22.6376 160.454 21.8876C159.933 21.1501 159.176 20.7751 158.195 20.7751ZM158.903 26.9876C158.754 27.2126 158.592 27.3251 158.195 27.3251C157.786 27.3251 157.624 27.2001 157.463 26.9751C157.165 26.5501 157.004 25.8751 157.004 24.9626C157.004 24.0876 157.165 23.4001 157.451 22.9751C157.575 22.8126 157.711 22.6501 158.195 22.6501C158.654 22.6501 158.791 22.8001 158.915 22.9751C159.201 23.3751 159.362 24.0751 159.362 24.9501C159.362 25.8626 159.201 26.5626 158.903 26.9876Z" fill="white"/>
<path d="M23.1846 16.1626H43.6633C45.6491 16.1626 47.5232 15.4001 48.9505 14.0001C50.3778 12.6126 51.197 10.7376 51.259 8.73756V8.71255V8.68755V8.31255V8.28756V8.26255C51.197 6.26255 50.3778 4.40005 48.9505 3.00005C47.5232 1.61255 45.6491 0.837555 43.6633 0.837555H23.1846C21.1739 0.837555 19.2129 1.66255 17.798 3.08755C16.3583 4.53755 15.5764 6.46255 15.5764 8.51255C15.5764 10.5626 16.3707 12.4876 17.8105 13.9251C19.2502 15.3626 21.1615 16.1626 23.1846 16.1626ZM19.1385 4.42506C20.2183 3.33755 21.6704 2.72505 23.197 2.72505H43.6633C46.7537 2.73755 49.2856 5.20006 49.3849 8.31255V8.68755C49.2856 11.8001 46.7537 14.2626 43.6633 14.2626H23.1846C21.6704 14.2626 20.2183 13.6501 19.1385 12.5751C16.9044 10.3251 16.9044 6.67506 19.1385 4.42506Z" fill="white"/>
<path d="M54.821 22.675C53.3813 21.225 51.7058 20.1 49.8317 19.3125C47.9576 18.525 45.9717 18.125 43.9487 18.125H22.899C18.7785 18.125 14.9185 19.7375 12.0019 22.675C9.08519 25.6125 7.48413 29.5 7.48413 33.65C7.48413 37.8 9.08519 41.6875 12.0019 44.625C14.9185 47.5625 18.7785 49.175 22.899 49.175H43.9363C48.0444 49.175 51.9168 47.5625 54.821 44.625C57.7253 41.6875 59.3263 37.8 59.3263 33.65C59.3263 31.6 58.9416 29.6 58.1597 27.7125C57.3902 25.8125 56.2607 24.125 54.821 22.675ZM43.9487 47.275H22.899C15.4274 47.275 9.37066 41.175 9.37066 33.65C9.37066 26.125 15.4274 20.025 22.899 20.025H43.9363C47.5232 20.025 50.9487 21.4625 53.4806 24.0125C56.0249 26.5625 57.4522 30.025 57.4398 33.6375C57.4522 41.175 51.4079 47.275 43.9487 47.275Z" fill="white"/>
<path d="M43.6508 27.875H23.1845C23.1845 27.875 23.1845 27.875 23.1721 27.875C20.0072 27.875 17.4504 30.4625 17.4504 33.65C17.4504 35.1875 18.0586 36.65 19.126 37.7375C20.2058 38.8125 21.6579 39.425 23.1721 39.425C23.1721 39.425 23.1721 39.425 23.1845 39.425H43.6384C46.8033 39.425 49.3724 36.8375 49.3724 33.65C49.3724 30.4625 46.8157 27.875 43.6508 27.875ZM43.6508 37.525H41.7643H23.1845H23.1721C22.1419 37.525 21.1863 37.125 20.454 36.4C19.7341 35.6625 19.337 34.6875 19.3246 33.6375C19.3246 31.5125 21.0497 29.775 23.1597 29.775H43.6136C45.7359 29.775 47.4611 31.5125 47.4611 33.65C47.4611 35.7875 45.7607 37.525 43.6508 37.525Z" fill="white"/>
</g>
<defs>
<clipPath id="clip0">
<rect width="175" height="50" fill="white"/>
</clipPath>
</defs>
</svg>
